Format : AVI
Format/Info : Audio Video Interleave
File size : 1.86 GiB
Duration : 2h 2mn
Overall bit rate : 2 171 Kbps
Writing application : VirtualDubMod 1.5.10.2 (build 2540/release)
Writing library : VirtualDubMod build 2540/release

Video
ID : 0
Format : MPEG-4 Visual
Format profile : Advanced Simple@L5
Format settings, BVOP : 2
Format settings, QPel : No
Format settings, GMC : No warppoints
Format settings, Matrix : Default (H.263)
Muxing mode : Packed bitstream
Codec ID : XVID
Codec ID/Hint : XviD
Duration : 2h 2mn
Bit rate : 2 034 Kbps
Width : 672 pixels
Height : 282 pixels
Display aspect ratio : 2.40:1
Frame rate : 25.000 fps
Color space : YUV
Chroma subsampling : 4:2:0
Bit depth : 8 bits
Scan type : Progressive
Compression mode : Lossy
Bits/(Pixel*Frame) : 0.429
Stream size : 1.74 GiB (94%)
Writing library : XviD 64

Audio
ID : 1
Format : MPEG Audio
Format version : Version 1
Format profile : Layer 3
Mode : Joint stereo
Mode extension : MS Stereo
Codec ID : 55
Codec ID/Hint : MP3
Duration : 2h 2mn
Bit rate mode : Constant
Bit rate : 128 Kbps
Channel(s) : 2 channels
Sampling rate : 44.1 KHz
Compression mode : Lossy
Stream size : 112 MiB (6%)
Alignment : Split accross interleaves
Interleave, duration : 40 ms (1.00 video frame)
Interleave, preload duration : 500 ms
Writing library : LAME3.99r
Encoding settings : -m j -V 4 -q 2 -lowpass 17 -b 128








 
http://www.imdb.com/title/tt0401729/




Ratings: 7.1/10 from 15,985 users Metascore: 53/100 
Reviews: 268 user | 260 critic | 39 from Metacritic.com

Transplanted to Mars, a Civil War vet discovers a lush planet inhabited by 12-foot tall barbarians. Finding himself a prisoner of these creatures, he escapes, only to encounter a princess who is in desperate need of a savior.

Director:
Andrew Stanton
Writers:
Andrew Stanton (screenplay), Mark Andrews (screenplay), and 2 more credits ┬╗
Stars:
Taylor Kitsch, Lynn Collins and Willem Dafoe 






Source Used



26k.....Thanks

iLLUMINATI.........Thanks